<svg width="64" height="64" viewBox="0 0 64 64" fill="none" xmlns="http://www.w3.org/2000/svg">
  <rect width="64" height="64" rx="12" fill="#5E6AD2"/>
  <path d="M11 35.9c-.1-.7.7-1.1 1.2-.6l16.5 16.5c.5.5.1 1.3-.6 1.2C19.6 51.9 12.1 44.4 11 35.9z" fill="#fff"/>
  <path d="M11.1 28.6c0-.3.1-.6.3-.8L36.4 52.6c.2.2.5.3.8.3 1.6-.1 3.1-.4 4.6-.8.6-.2.8-.9.4-1.4L13.3 23.6c-.4-.4-1.2-.2-1.4.4-.4 1.5-.7 3-.8 4.6z" fill="#fff"/>
  <path d="M14.3 19.6c-.2-.3-.2-.6 0-.9 4-5.2 10.4-8.6 17.5-8.6C43.9 10.1 54 20.2 54 32.7c0 7.2-3.4 13.5-8.6 17.6-.3.2-.7.2-.9 0L14.3 19.6z" fill="#fff"/>
</svg>
