<svg width="64" height="64" viewBox="0 0 64 64" fill="none" xmlns="http://www.w3.org/2000/svg">
  <rect width="64" height="64" rx="12" fill="#FFFFFF"/>
  <rect x="0.5" y="0.5" width="63" height="63" rx="11.5" stroke="#E5E5E5"/>
  <path d="M18 18.5l24 -1.8c2.9 -0.25 3.6 -0.08 5.4 1.23l5.1 3.6c1.2 0.87 1.6 1.1 1.6 2.05v25.7c0 1.75 -0.64 2.78 -2.86 2.94l-27.8 1.67c-1.68 0.08 -2.48 -0.16 -3.36 -1.27l-4.1 -5.3c-0.96 -1.27 -1.36 -2.22 -1.36 -3.33V21.3c0 -1.43 0.64 -2.62 2.74 -2.8z" fill="#000000"/>
  <path d="M42 16.7l-24 1.8c-2.1 0.18 -2.74 1.37 -2.74 2.8v24.4c0 1.11 0.4 2.06 1.36 3.33l4.1 5.3c0.88 1.11 1.68 1.35 3.36 1.27l27.8 -1.67c2.22 -0.16 2.86 -1.19 2.86 -2.94V25.6c0 -0.9 -0.36 -1.16 -1.4 -1.93l-5.3 -3.72c-1.8 -1.31 -2.5 -1.48 -5.4 -1.23zm-19.5 5.6c-2.14 0.14 -2.63 0.18 -3.85 -0.81l-3.1 -2.46c-0.31 -0.32 -0.15 -0.71 0.64 -0.79l23.1 -1.67c1.83 -0.16 2.78 0.48 3.49 1.03l3.73 2.7c0.16 0.08 0.55 0.55 0.07 0.55l-23.85 1.43z" fill="#FFFFFF"/>
  <path d="M25 50.3V25.7c0 -1.07 0.33 -1.57 1.31 -1.65l27.4 -1.6v24.2c0 1.07 -0.66 1.9 -1.96 1.98l-26.3 1.51c-1.3 0.08 -1.96 -0.34 -1.96 -1.51z" fill="#FFFFFF"/>
  <path d="M30.3 28.5l4.78 0.32v-0.32l-1.96 -1.43 1.83 -3.65 1.96 4.92 2.86 -0.16 -2.62 -7.06 -2.94 0.16zm-2.62 1.27c0 0.4 0.16 0.55 0.55 0.59l1.3 0.16v6.74l-1.3 0.79c-0.31 0.16 -0.4 0.4 -0.16 0.71 0.24 0.32 0.55 0.32 1.04 0.24l3.65 -0.71c0.4 -0.08 0.55 -0.32 0.4 -0.71 -0.16 -0.32 -0.4 -0.4 -0.79 -0.32l-1.3 0.16v-6.74z" fill="#000000"/>
</svg>
