<svg width="64" height="64" viewBox="0 0 64 64" fill="none" xmlns="http://www.w3.org/2000/svg">
  <rect width="64" height="64" rx="12" fill="#1F2937"/>
  <path d="M30.2 14.4 11.6 22a1.4 1.4 0 0 0 .02 2.6l18.7 7.4a4 4 0 0 0 3 0l18.7-7.4a1.4 1.4 0 0 0 .02-2.6L33.4 14.4a4 4 0 0 0-3.2 0Z" fill="#FCB400"/>
  <path d="M33 35.6v13.1a1.4 1.4 0 0 0 1.94 1.3l20.3-7.86A1.4 1.4 0 0 0 56.1 40V27.3a1.4 1.4 0 0 0-1.94-1.3l-20.3 7.86A1.4 1.4 0 0 0 33 35.6Z" fill="#18BFFF"/>
  <path d="M28.3 36.5 22 39.6l-.64.3-12.8 6.13a1.4 1.4 0 0 1-2-1.26V27.42c0-.23.06-.43.15-.6a1.4 1.4 0 0 1 1.86-.6l19.6 8.34a1.4 1.4 0 0 1 .13 2.5Z" fill="#F82B60"/>
</svg>
