<svg xmlns="http://www.w3.org/2000/svg" viewBox="0 0 32 32" role="img" aria-label="PocketBase">
  <defs>
    <linearGradient id="pocketbase-gradient" x1="0" y1="0" x2="1" y2="1">
      <stop offset="0" stop-color="#36D7B7"/>
      <stop offset="1" stop-color="#0EA5E9"/>
    </linearGradient>
  </defs>
  <rect width="32" height="32" rx="6" fill="#0B1020"/>
  <path fill="url(#pocketbase-gradient)" d="M8 9.5C8 8.1 11.6 7 16 7s8 1.1 8 2.5v13C24 23.9 20.4 25 16 25s-8-1.1-8-2.5v-13z" opacity="0.25"/>
  <ellipse cx="16" cy="9.5" rx="8" ry="2.5" fill="url(#pocketbase-gradient)"/>
  <path fill="url(#pocketbase-gradient)" d="M8 13.5c0 1.4 3.6 2.5 8 2.5s8-1.1 8-2.5v3C24 17.9 20.4 19 16 19s-8-1.1-8-2.5v-3zM8 20c0 1.4 3.6 2.5 8 2.5s8-1.1 8-2.5v2.5C24 23.9 20.4 25 16 25s-8-1.1-8-2.5V20z"/>
</svg>
