<svg xmlns="http://www.w3.org/2000/svg" viewBox="0 0 32 32" role="img" aria-label="Appwrite">
  <defs>
    <linearGradient id="appwrite-gradient" x1="0" y1="0" x2="1" y2="1">
      <stop offset="0" stop-color="#FD366E"/>
      <stop offset="1" stop-color="#F02E65"/>
    </linearGradient>
  </defs>
  <rect width="32" height="32" rx="6" fill="#19191F"/>
  <path fill="url(#appwrite-gradient)" d="M25 19.4v4.1H7v-4.1a9 9 0 0 1 0-6.9V8.5h18v4a9 9 0 0 0-7.6 7zm-2.6 0a6.4 6.4 0 0 0-12.3-2.4 6.4 6.4 0 0 0 5.9 8.9h6.4v-6.5z" opacity="0"/>
  <path fill="url(#appwrite-gradient)" d="M16 8a8 8 0 0 0-8 8v8h8a8 8 0 1 0 0-16zm0 12.3A4.3 4.3 0 1 1 16 11.7a4.3 4.3 0 0 1 0 8.6z"/>
</svg>
